<svg fill="none" height="512" viewBox="0 0 24 24" width="512" xmlns="http://www.w3.org/2000/svg"><g clip-rule="evenodd" fill="rgb(0,0,0)" fill-rule="evenodd"><path d="m12 4c-.0621 0-.1239.00094-.1854.0028-.1234.00373-.2889.06123-.6224.27814-.0519.03373-.1129.07532-.1813.12194-.2758.18804-.6716.45783-1.07118.62334-.39954.16548-.87003.2545-1.19793.31654-.08123.01537-.15371.02908-.21419.04189-.38914.08241-.54684.15871-.63673.24322-.09034.08495-.17805.17266-.263.263-.08452.08989-.16081.2476-.24323.63674-.01281.06048-.02652.13295-.04189.21418-.06204.32791-.15106.7984-.31654 1.19794-.16551.3996-.43531.79536-.62335 1.0712-.04661.06839-.08821.1294-.12194.18128-.21691.33355-.27441.49904-.27814.62237-.00186.06155-.0028.12336-.0028.18542 0 .0621.00094.1239.0028.1854.00373.1233.06122.2888.27814.6224.03373.0518.07533.1129.12194.1812.18804.2759.45784.6717.62335 1.0713.16548.3995.2545.87.31654 1.1979.01537.0812.02908.1537.04189.2142.08242.3891.15871.5468.24323.6367.08494.0904.17264.1781.26297.263.08989.0845.2476.1608.63674.2432.06049.0128.13296.0265.21419.0419.32791.0621.7984.1511 1.19795.3166.39958.1655.79538.4353 1.07118.6233.0684.0466.1294.0882.1813.122.3336.2169.4991.2744.6224.2781.0615.0019.1233.0028.1854.0028.062 0 .1238-.0009.1854-.0028.1233-.0037.2888-.0612.6224-.2781.0518-.0338.1128-.0754.1812-.122.2759-.188.6716-.4578 1.0712-.6233s.8701-.2545 1.198-.3166c.0812-.0154.1537-.0291.2142-.0419.3891-.0824.5468-.1587.6367-.2432.0903-.0849.1781-.1726.263-.263.0845-.0899.1608-.2476.2432-.6367.0128-.0605.0265-.133.0419-.2142.0621-.3279.1511-.7984.3166-1.1979.1655-.3996.4353-.7954.6233-1.0713.0466-.0683.0882-.1294.1219-.1812.2169-.3336.2744-.4991.2782-.6224.0018-.0615.0028-.1233.0028-.1854 0-.06207-.001-.12388-.0028-.18543-.0038-.12333-.0613-.28882-.2782-.62237-.0337-.05188-.0753-.11289-.1219-.18128-.188-.27583-.4578-.6716-.6233-1.07119-.1655-.39954-.2545-.87002-.3166-1.19792-.0154-.08123-.0291-.15371-.0419-.21419-.0824-.38914-.1587-.54685-.2432-.63673-.085-.09035-.1727-.17807-.263-.26302-.0899-.08451-.2476-.16081-.6367-.24322-.0605-.01281-.133-.02652-.2142-.04189-.3279-.06204-.7984-.15106-1.198-.31655-.3996-.1655-.7953-.43529-1.0712-.62333-.0683-.04662-.1294-.08821-.1812-.12194-.3336-.21691-.4991-.27441-.6224-.27814-.0615-.00186-.1234-.0028-.1854-.0028zm-3.37903.34679c-.52202.09993-1.039.1989-1.41511.55255-.10529.099-.20752.20123-.30652.30652-.35365.37611-.45262.89309-.55256 1.41511-.06138.32062-.12312.64314-.24446.93609-.12137.29303-.30579.56481-.48912.835-.29862.44008-.59434.8759-.60996 1.39227-.00217.07163-.00326.14352-.00326.21567 0 .0721.00109.144.00326.2156.01562.5164.31134.9522.60996 1.3923.18333.2702.36775.542.48912.835.12134.293.18308.6155.24446.9361.09994.522.19891 1.039.55256 1.4151.09899.1053.20121.2075.30649.3065.37612.3537.8931.4527 1.41512.5526.32062.0614.64315.1231.9361.2445.29303.1213.56485.3057.83505.4891.44.2986.8759.5943 1.3922.6099.0717.0022.1435.0033.2157.0033.0721 0 .144-.0011.2156-.0033.5164-.0156.9522-.3113 1.3923-.6099.2702-.1834.542-.3678.835-.4891.293-.1214.6155-.1831.9361-.2445.522-.0999 1.039-.1989 1.4151-.5526.1053-.099.2075-.2012.3065-.3065.3537-.3761.4526-.8931.5526-1.4151.0614-.3206.1231-.6431.2444-.9361.1214-.293.3058-.5648.4892-.835.2986-.4401.5943-.8759.6099-1.3923.0022-.0716.0033-.1435.0033-.2156 0-.07215-.0011-.14405-.0033-.21568-.0156-.51637-.3113-.95219-.6099-1.39227-.1834-.27018-.3678-.54196-.4892-.83499-.1213-.29295-.183-.61547-.2444-.93608-.1-.52202-.1989-1.03899-.5526-1.41511-.099-.10529-.2012-.20752-.3065-.30653-.3761-.35365-.8931-.45262-1.4151-.55255-.3206-.06138-.6431-.12313-.9361-.24446-.293-.12137-.5648-.30579-.835-.48911-.4401-.29862-.8759-.59433-1.3922-.60996-.0717-.00217-.1436-.00326-.2157-.00326-.0722 0-.1441.00109-.2157.00326-.5164.01563-.9522.31134-1.3923.60996-.2701.18332-.54193.36774-.83495.48911-.29295.12134-.61547.18308-.93608.24446z"/><path d="m11.8086 7.59624c-.3025.87018-1.1145 1.46019-2.0356 1.47896-.06597.00135-.0994.02009-.12001.03633-.02619.02063-.05295.05565-.06854.10362-.01558.04797-.01452.09203-.00546.12411.00714.02526.02316.06007.07574.09993.73417.55658 1.04427 1.51121.77757 2.39301-.0191.0632-.0116.1007-.0026.1254.0116.0312.0366.0675.0774.0972.0408.0296.083.0422.1163.0435.0263.001.0643-.0034.1185-.0411.7562-.5262 1.76-.5262 2.5162 0 .0541.0377.0922.0421.1184.0411.0333-.0013.0755-.0139.1164-.0435.0408-.0297.0658-.066.0773-.0972.0091-.0247.0166-.0622-.0025-.1254-.2668-.8818.0434-1.83643.7775-2.39301.0526-.03986.0686-.07467.0758-.09993.009-.03208.0101-.07614-.0055-.12411s-.0423-.08299-.0685-.10362c-.0206-.01624-.0541-.03498-.12-.03633-.9211-.01877-1.7332-.60878-2.0357-1.47896-.0216-.06233-.0498-.08832-.0716-.10291-.0277-.01853-.0693-.03316-.1197-.03316-.0505 0-.092.01463-.1197.03316-.0219.01459-.05.04058-.0717.10291zm1.3273-.32833c-.3744-1.07699-1.8975-1.07699-2.2718 0-.1652.47511-.6086.79725-1.11147.8075-1.13997.02323-1.61064 1.47181-.70204 2.16069.40082.3038.57018.8251.42452 1.3065-.33017 1.0914.90209 1.9866 1.83799 1.3354.4128-.2873.9609-.2873 1.3738 0 .9359.6512 2.1681-.244 1.8379-1.3354-.1456-.4814.0237-1.0027.4246-1.3065.9086-.68888.4379-2.13746-.7021-2.16069-.5029-.01025-.9462-.33239-1.1114-.8075z"/><path d="m2.49998 15.2929 3.64644-3.6465.70711.7072-3.64645 3.6464h2.2929c.55228 0 1 .4477 1 1v2.7929l4.14642-4.1465.7071.7072-4.14642 4.1464c-.62996.63-1.7071.1838-1.7071-.7071v-2.7929h-2.2929c-.8909 0-1.33707-1.0771-.7071-1.7071z"/><path d="m21.5 15.2929-3.6465-3.6465-.7071.7072 3.6465 3.6464h-2.2929c-.5523 0-1 .4477-1 1v2.7929l-4.1465-4.1465-.7071.7072 4.1465 4.1464c.6299.63 1.7071.1838 1.7071-.7071v-2.7929h2.2929c.8909 0 1.337-1.0771.7071-1.7071z"/></g></svg>