<svg id="Layer_1" height="512" viewBox="0 0 512 512" width="512" xmlns="http://www.w3.org/2000/svg" data-name="Layer 1"><path d="m354.145 117.061-64.337-42.133a63.05 63.05 0 0 0 -16.684-7.752 182.246 182.246 0 0 1 16.211-43.743 16 16 0 1 0 -28.335-14.863 214.15 214.15 0 0 0 -20.5 58.151 62.854 62.854 0 0 0 -18.309 8.208l-64.336 42.131a60.732 60.732 0 0 0 -27.9 51.628v284.986a58.392 58.392 0 0 0 58.323 58.326h135.444a58.392 58.392 0 0 0 58.326-58.327v-284.985a60.729 60.729 0 0 0 -27.903-51.627zm-101.445 328.96a33.574 33.574 0 1 1 33.574-33.573 33.612 33.612 0 0 1 -33.574 33.573zm84.869-170.063-140.508 140.507a16 16 0 0 1 -22.628-22.627l140.507-140.507a16 16 0 1 1 22.627 22.627zm-118.443-18.3a33.574 33.574 0 1 1 33.574 33.573 33.613 33.613 0 0 1 -33.576-33.574zm130.924-76.916h-188.1v-12.054a28.512 28.512 0 0 1 13.434-24.858l61.13-40.031a215.069 215.069 0 0 0 .753 22.706 16 16 0 0 0 15.923 14.626c.461 0 .925-.019 1.393-.06a16 16 0 0 0 14.566-17.316 182.477 182.477 0 0 1 -.479-24.091 32.2 32.2 0 0 1 3.606 2.035l64.336 42.131a28.512 28.512 0 0 1 13.434 24.858zm-97.35 78.49a1.574 1.574 0 1 1 1.574-1.574 1.576 1.576 0 0 1 -1.574 1.573zm1.574 153.217a1.574 1.574 0 1 1 -1.574-1.575 1.575 1.575 0 0 1 1.572 1.574z"/></svg>